<?xml version="1.0" encoding="UTF-8" standalone="no"?>
<!-- Created with Inkscape (http://www.inkscape.org/) -->

<svg
   xmlns:dc="http://purl.org/dc/elements/1.1/"
   xmlns:cc="http://creativecommons.org/ns#"
   xmlns:rdf="http://www.w3.org/1999/02/22-rdf-syntax-ns#"
   xmlns:svg="http://www.w3.org/2000/svg"
   xmlns="http://www.w3.org/2000/svg"
   xmlns:xlink="http://www.w3.org/1999/xlink"
   xmlns:sodipodi="http://sodipodi.sourceforge.net/DTD/sodipodi-0.dtd"
   xmlns:inkscape="http://www.inkscape.org/namespaces/inkscape"
   width="744.09448819"
   height="1052.3622047"
   id="svg2"
   version="1.1"
   inkscape:version="0.48.4 r9939"
   sodipodi:docname="poster.svg"
   inkscape:export-filename="/home/mospina/manuel/studio/plaga/tmp/newposter.png"
   inkscape:export-xdpi="90"
   inkscape:export-ydpi="90">
  <defs
     id="defs4">
    <linearGradient
       inkscape:collect="always"
       id="linearGradient3898">
      <stop
         style="stop-color:#2b6185;stop-opacity:1;"
         offset="0"
         id="stop3900" />
      <stop
         style="stop-color:#2b6185;stop-opacity:0;"
         offset="1"
         id="stop3902" />
    </linearGradient>
    <linearGradient
       inkscape:collect="always"
       id="linearGradient3890">
      <stop
         style="stop-color:#2d4f59;stop-opacity:1;"
         offset="0"
         id="stop3892" />
      <stop
         style="stop-color:#2d4f59;stop-opacity:0;"
         offset="1"
         id="stop3894" />
    </linearGradient>
    <linearGradient
       inkscape:collect="always"
       id="linearGradient3882">
      <stop
         style="stop-color:#3c6d8d;stop-opacity:1;"
         offset="0"
         id="stop3884" />
      <stop
         style="stop-color:#3c6d8d;stop-opacity:0;"
         offset="1"
         id="stop3886" />
    </linearGradient>
    <linearGradient
       inkscape:collect="always"
       id="linearGradient3874">
      <stop
         style="stop-color:#5c8299;stop-opacity:1;"
         offset="0"
         id="stop3876" />
      <stop
         style="stop-color:#5c8299;stop-opacity:0;"
         offset="1"
         id="stop3878" />
    </linearGradient>
    <radialGradient
       inkscape:collect="always"
       xlink:href="#linearGradient3874"
       id="radialGradient3872"
       cx="187.76587"
       cy="88.309319"
       fx="187.76587"
       fy="88.309319"
       r="120.58971"
       gradientTransform="matrix(1,0,0,0.73935262,0,23.017593)"
       gradientUnits="userSpaceOnUse" />
    <radialGradient
       inkscape:collect="always"
       xlink:href="#linearGradient3874"
       id="radialGradient3880"
       cx="425.22021"
       cy="53.630849"
       fx="425.22021"
       fy="53.630849"
       r="118.02395"
       gradientTransform="matrix(1,0,0,0.58715723,0,22.141108)"
       gradientUnits="userSpaceOnUse" />
    <radialGradient
       inkscape:collect="always"
       xlink:href="#linearGradient3882"
       id="radialGradient3888"
       cx="-22.898893"
       cy="251.65776"
       fx="-22.898893"
       fy="251.65776"
       r="56.812848"
       gradientTransform="matrix(1,0,0,2.0274681,0,-258.57033)"
       gradientUnits="userSpaceOnUse" />
    <radialGradient
       inkscape:collect="always"
       xlink:href="#linearGradient3890"
       id="radialGradient3896"
       cx="93.204107"
       cy="342.48934"
       fx="93.204107"
       fy="342.48934"
       r="81.937619"
       gradientTransform="matrix(1,0,0,1.690025,0,-236.32621)"
       gradientUnits="userSpaceOnUse" />
    <radialGradient
       inkscape:collect="always"
       xlink:href="#linearGradient3898"
       id="radialGradient3904"
       cx="259.45747"
       cy="316.84276"
       fx="259.45747"
       fy="316.84276"
       r="98.957469"
       gradientTransform="matrix(1,0,0,1.2033414,0,-64.427236)"
       gradientUnits="userSpaceOnUse" />
    <radialGradient
       inkscape:collect="always"
       xlink:href="#linearGradient3882"
       id="radialGradient3912"
       cx="-55.980965"
       cy="506.64685"
       fx="-55.980965"
       fy="506.64685"
       r="51.563766"
       gradientTransform="matrix(1,0,0,1.9448673,0,-478.71403)"
       gradientUnits="userSpaceOnUse" />
  </defs>
  <sodipodi:namedview
     id="base"
     pagecolor="#ffffff"
     bordercolor="#666666"
     borderopacity="1.0"
     inkscape:pageopacity="0.0"
     inkscape:pageshadow="2"
     inkscape:zoom="0.5"
     inkscape:cx="49.21708"
     inkscape:cy="561.16916"
     inkscape:document-units="px"
     inkscape:current-layer="layer1"
     showgrid="false"
     inkscape:snap-global="false"
     inkscape:window-width="1680"
     inkscape:window-height="991"
     inkscape:window-x="0"
     inkscape:window-y="27"
     inkscape:window-maximized="1">
    <inkscape:grid
       type="xygrid"
       id="grid4069" />
  </sodipodi:namedview>
  <metadata
     id="metadata7">
    <rdf:RDF>
      <cc:Work
         rdf:about="">
        <dc:format>image/svg+xml</dc:format>
        <dc:type
           rdf:resource="http://purl.org/dc/dcmitype/StillImage" />
        <dc:title></dc:title>
      </cc:Work>
    </rdf:RDF>
  </metadata>
  <g
     inkscape:label="Layer 1"
     inkscape:groupmode="layer"
     id="layer1">
    <rect
       style="fill:#5a5d6e;fill-opacity:1;stroke:none;stroke-opacity:1"
       id="rect4372"
       width="1040"
       height="986"
       x="-91"
       y="-0.63781738" />
    <path
       style="fill:#0f132e;fill-opacity:1;stroke:#000000;stroke-width:1px;stroke-linecap:butt;stroke-linejoin:miter;stroke-opacity:1"
       d="m 543.5,869.36218 c -3.80308,9.82856 0,33.67784 0,49.5 0,3.42359 1.24387,20.80074 2,23.5 3.69675,13.19675 1.37918,39.87918 9.5,48 2.0532,2.05321 5.99325,2 9.5,2 5.03257,0 19.24247,-0.62123 24,-3 6.13758,-3.06879 21.07628,4.21186 27.5,1 4.98959,-2.49479 7.27858,3.22142 10.5,0 6.74189,-6.74189 4.05317,-26.66902 4.5,-36 0.55606,-11.61212 -2.13173,-30.23653 2,-38.5 10.37483,-20.74966 -11.15667,-54.07833 -24,-60.5 -5.99079,-2.99539 -27.76921,-0.57693 -34,1.5 -13.01858,4.33953 -24.38631,0.64385 -31.5,12.5 z"
       id="path4481"
       inkscape:connector-curvature="0"
       sodipodi:nodetypes="csssssssssssc" />
    <path
       style="fill:#1f5b80;fill-opacity:1;stroke:#1f5b80;stroke-width:1px;stroke-linecap:butt;stroke-linejoin:miter;stroke-opacity:1"
       d="m -104,7.3621826 c -6.35285,-13.2980111 -0.76636,-23.9999996 14,-17.9999996 6.765472,6 13.918426,-2.769467 24,-4 25.745688,-6.436422 54.994869,-1.601027 83,4 19.886478,3.9772952 44.637276,0 65,0 163.5333,0 329.55805,-21.030949 490,-9 2.32263,1.590057 4.41728,13.6691063 1.5,25.9999996 C 567.90122,57.246212 549.89849,94.4637 530,145.36218 c -7.88034,20.15719 -17.74289,51.7429 -44,91 -5.08072,7.5962 -34.47819,44.4782 -41,51 -28.75789,28.75789 -33.305,34.27642 -61,61 -22.17068,21.39304 -34.16396,34.69315 -53,53 -57.95412,56.94531 -73.58647,58.64717 -138,91 -9.86841,4.93421 -121.732409,58.473 -131,64 -13.355556,7.96497 -154.512764,63 -187.5,50 z"
       id="path3074"
       inkscape:connector-curvature="0"
       sodipodi:nodetypes="cccssccssssccscc" />
    <path
       style="fill:url(#radialGradient3872);stroke:none;stroke-width:1px;stroke-linecap:butt;stroke-linejoin:miter;stroke-opacity:1;fill-opacity:1.0"
       d="m 112,31.362183 c -4.0527,-3.539533 -17.611994,-2.388006 -26,6 -8.727761,8.727761 -12.106402,7.212804 -18,19 -4.192354,8.384707 8.820191,11.820191 12,15 5.110999,5.110999 -1.545269,22.45473 3,27 15.731293,15.731297 25.87491,39.874917 42,55.999997 2.49338,2.49338 10.19973,3.19973 13,6 2.8009,2.8009 4.25226,11.12613 10,14 2.30673,1.15337 106.70632,3.64684 108,3 3.07074,-1.53537 17.97056,-11.02943 22,-7 5.10548,5.10548 18.52961,9.47039 26,2 8.80398,-8.80398 2.41459,-35.5854 -3,-41 -8.182,-8.182 6.77437,-28.45125 2,-37.999997 -6.03339,-12.066789 -14.05016,-12.050159 -21,-19 -6.78823,-6.788228 2.69131,-21.308688 -5,-29 -7.6029,-7.602896 -20.4947,-4.747353 -31,-10 -7.70743,-3.853717 -24.01405,-19.507024 -39,-27.0000004 -4.00535,-2.0026759 -27.6261,-0.6260956 -29,-2 C 152.45123,-19.186583 137.67061,31.362183 112,31.362183 z"
       id="path3076"
       inkscape:connector-curvature="0" />
    <path
       style="fill:url(#radialGradient3880);stroke:none;stroke-width:1px;stroke-linecap:butt;stroke-linejoin:miter;stroke-opacity:1;fill-opacity:1"
       d="m 315,-5.6378174 c -3.38826,4.85547489 -10.11885,16.7622994 -7,23.0000004 0.65094,1.301872 50.36857,45.184287 54,47 13.28293,6.641463 7.37409,22.374086 16,31 12.62398,12.623987 38.41982,19.209907 54,26.999997 5.39839,2.6992 23.00388,-5.00194 27,-7 12.8865,-6.44325 35.37565,2.62435 46,-8 C 518.37393,93.988255 557.23013,16.592317 538,-2.6378174 523.7137,-16.924118 438.41303,-15.637817 413,-15.637817 c -24.88372,0 -49.49504,3 -74,3 m 0,0 c -2.33333,0 -4.66667,0 -7,0 -8.54738,-1.469209 -12.87091,0.118185 -17,6.9999996"
       id="path3078"
       inkscape:connector-curvature="0" />
    <path
       style="fill:url(#radialGradient3904);fill-opacity:1;stroke:none"
       d="m 285,333.36218 c -23.81222,18.98916 -27.32572,40.32572 -44,57 -5.27731,5.27731 -17.77019,8.3851 -25,12 -13.15759,6.5788 -48.51765,50.92942 -55,25 0.49467,-23.9725 -1.46232,-47.07537 9,-68 2.93393,-5.86786 -7.43719,-24.5628 -1,-31 12.14144,-12.14143 28.09441,-20.0472 42,-27 10.09619,-5.04809 10.43007,-25.43007 17,-32 10.19078,-10.19077 27.95895,-2.95894 38,-13 9.86905,-9.86905 20.11692,-14.05846 34,-21 12.34795,-6.17397 31.66597,-46.66701 55,-35 11.79151,5.89576 -16,30.79045 -16,38 0,9.63733 17.38924,18.22153 13,27 -12.46202,24.92404 -26.63632,21.63632 -38,33 -3.35383,3.35383 -1.84875,12.84875 -6,17 -5.3291,5.3291 -17.21787,12.21788 -23,18"
       id="path3080"
       inkscape:connector-curvature="0" />
    <path
       style="fill:url(#radialGradient3888);stroke:none;stroke-width:1px;stroke-linecap:butt;stroke-linejoin:miter;stroke-opacity:1;fill-opacity:1"
       d="m -79,358.36218 c -2.379416,1.96403 15.867434,14.13257 26,4 20.164807,-20.1648 40.584501,-78.5845 49,-87 8.4318868,-8.43188 20.224372,-15.22437 29,-24 6.374334,-6.37433 3.804495,-22.60899 8,-31 1.959332,-3.91866 -3.596273,-13.59627 -5,-15 -12.332239,-12.33224 -11.050005,-52.05 -21,-62 -10.3545218,-10.35452 -55.015062,-6.9887 -67,2 m 0,0 c -1.333333,1.33333 -2.666667,2.66667 -4,4 0,0.33334 0,0.66667 0,1"
       id="path3082"
       inkscape:connector-curvature="0" />
    <path
       style="fill:url(#radialGradient3912);stroke:none;stroke-width:1px;stroke-linecap:butt;stroke-linejoin:miter;stroke-opacity:1;fill-opacity:1.0"
       d="m -95,406.36218 c 23.071591,6.24993 60.733707,20.46742 72,43 4.20852,8.41704 -2.924262,29.07574 3,35 19.8750112,19.87501 19.04474192,53.91052 7,78 -3.424472,6.84895 11.1035773,15.89643 6,21 -10.535869,10.53587 -32.093169,5.54659 -45,12 -7.386261,3.69313 -18.281912,15.85905 -30,10 -29.50282,-14.75141 -0.140671,-83.14067 -12,-95 -10.5412,-10.54119 -10,-47.58564 -10,-63 0,-5.85502 -6.40078,-29.59922 -2,-34 1.8189,-1.8189 7.910034,-5.76401 11,-7 z"
       id="path3086"
       inkscape:connector-curvature="0" />
    <path
       style="fill:url(#radialGradient3896);stroke:none;stroke-width:1px;stroke-linecap:butt;stroke-linejoin:miter;stroke-opacity:1;fill-opacity:1"
       d="m 47,318.36218 c -2.38119,-2.12221 -0.871898,-4.43595 -8,-8 -41.0665916,-20.53329 8.974816,-47.94963 16,-62 3.911909,-7.82382 23.958005,-48.52099 33,-44 8.529666,4.26484 8.535219,19.26761 20,25 9.79961,4.89981 19.29088,12.14544 29,17 12.91488,6.45744 48.90396,1.19208 35,29 -1.86667,3.73334 1.86667,10.26667 0,14 -2.80171,5.60342 -28.28014,30.43972 -26,35 2.94648,5.89297 13.5798,43.4202 10,47 -7.84712,7.84712 -26.86159,7.86159 -38,19 -15.21557,15.21557 67.37205,25.62796 30,63 -14.02603,14.02603 -28.6544,13.55147 -45,19 -5.329136,1.77638 -20.945161,11.02742 -27,8 -25.594036,-12.79702 -49.558161,-39.11632 -63,-66 -9.4318049,-18.86361 22.390679,-30.39068 29,-37 9.769046,-9.76904 2.639907,-47.19953 5,-59 z"
       id="path3088"
       inkscape:connector-curvature="0" />
    <path
       style="fill:#0b0a08;stroke:#000000;stroke-width:1px;stroke-linecap:butt;stroke-linejoin:miter;stroke-opacity:1;fill-opacity:1"
       d="m -24.75,359.36218 c 10.525644,-9.12919 23.8511754,-15.92559 37.5,-22.75 4.744591,-2.37229 25.308418,-4.67625 32.25,-4.75 5.939307,-0.0631 33.745606,-1.6272 39.75,-2.25 2.981806,-0.30928 19.37277,-2.03226 22.25,-2.25 4.20456,-0.31819 11.04589,-1.14794 15.5,-1.5 2.30144,-0.18191 11.74498,-1.74833 14,-2.5 8.4032,-2.80107 11.78401,-2.428 18.75,-4.25 1.67521,-0.43816 9.50638,-3.253 11,-4 4.85013,-0.12697 12.19658,-4.41036 16,-5.75 3.08749,-1.08748 9.5127,-3.84213 12.97487,-5.57322 4.81979,-2.40989 6.68405,-3.99735 11.06802,-6.18934 0.0362,1.13096 6.95711,-4.2277 6.95711,-3.73744 0,1.45144 -6.5906,5.80161 -8.25,6.75 -3.71315,2.12216 -8.3947,5.32235 -12.75,7.5 -2.04096,1.02048 -9.04291,4.14336 -10.5,5.25 -5.14493,3.90751 -12.97931,7.72294 -17.95711,11.67678 -6.58188,5.22795 -14.66829,9.1851 -20.79289,13.57322 -4.73745,3.39426 -9.49397,7.40305 -12.75,12.25 -8.52479,12.69006 12.32485,22.67764 17,23.75 2.90932,0.66732 8.5,-0.10618 8.5,0.25 0,1.32233 -10.42189,6.1719 -11.5,7.25 -2.31044,2.31044 -6.12716,2.93858 -9.25,4.5 -15.71033,7.85517 -34.88503,5.75 -54,5.75 -9.910016,0 -40.316569,-4.15665 -46.75,-3.5 -1.814776,0.18523 -23.473028,-4.48651 -25,-5.25 -7.1483481,-3.57417 -27.655562,-10.56112 -32,-13.5 -4.320252,-2.92252 -5.088985,-5.71504 -2,-10.75 z"
       id="path3066"
       inkscape:connector-curvature="0"
       sodipodi:nodetypes="cssssssscsscsssssssssssssssc" />
    <path
       style="fill:#7a7975;stroke:#000000;stroke-width:1px;stroke-linecap:butt;stroke-linejoin:miter;stroke-opacity:1;fill-opacity:1"
       d="m -14.068913,351.03726 c 2.163214,1.74272 8.2946205,6.10609 11.9475927,6.94606 3.9025648,0.89737 13.0702133,1e-5 16.0866793,1e-5 3.958573,0 14.318912,-3.88909 14.318912,-3.88909 0,0 -10.202958,-2.18466 -10.429825,-2.2981 -6.730748,-3.36537 -11.1138694,-4.57313 -16.086679,-9.54594 -5.2632935,2.40941 -13.838433,7.13887 -15.83668,8.78706 z"
       id="path3068"
       inkscape:connector-curvature="0"
       sodipodi:nodetypes="csscccc" />
    <path
       style="fill:#0b0a08;fill-opacity:1;stroke:#000000;stroke-width:1px;stroke-linecap:butt;stroke-linejoin:miter;stroke-opacity:1"
       d="m 371.93761,191.49991 c 10.52564,-9.12919 23.85117,-15.92559 37.5,-22.75 4.74459,-2.37229 25.30842,-4.67625 32.25,-4.75 5.93931,-0.0631 33.74561,-1.6272 39.75,-2.25 2.98181,-0.30928 19.37277,-2.03226 22.25,-2.25 4.20456,-0.31819 11.04589,-1.14794 15.5,-1.5 2.30144,-0.18191 11.74498,-1.74833 14,-2.5 8.4032,-2.80107 11.78401,-2.428 18.75,-4.25 1.67521,-0.43816 9.50638,-3.253 11,-4 4.85013,-0.12697 12.19658,-4.41036 16,-5.75 3.08749,-1.08748 9.5127,-3.84213 12.97487,-5.57322 4.81979,-2.40989 6.68405,-3.99735 11.06802,-6.18934 0.0362,1.13096 6.95711,-4.2277 6.95711,-3.73744 0,1.45144 -6.5906,5.80161 -8.25,6.75 -3.71315,2.12216 -8.3947,5.32235 -12.75,7.5 -2.04096,1.02048 -9.04291,4.14336 -10.5,5.25 -5.14493,3.90751 -12.97931,7.72294 -17.95711,11.67678 -6.58188,5.22795 -14.66829,9.1851 -20.79289,13.57322 -4.73745,3.39426 -9.49397,7.40305 -12.75,12.25 -8.52479,12.69006 12.32485,22.67764 17,23.75 2.90932,0.66732 8.5,-0.10618 8.5,0.25 0,1.32233 -10.42189,6.1719 -11.5,7.25 -2.31044,2.31044 -6.12716,2.93858 -9.25,4.5 -15.71033,7.85516 -34.88503,5.75 -54,5.75 -9.91002,0 -40.31657,-4.15665 -46.75,-3.5 -1.81478,0.18523 -23.47303,-4.48651 -25,-5.25 -7.14835,-3.57417 -27.65556,-10.56112 -32,-13.5 -4.32025,-2.92252 -5.08899,-5.71504 -2,-10.75 z"
       id="path3066-7"
       inkscape:connector-curvature="0"
       sodipodi:nodetypes="cssssssscsscsssssssssssssssc" />
    <path
       style="fill:#7a7975;fill-opacity:1;stroke:#000000;stroke-width:1px;stroke-linecap:butt;stroke-linejoin:miter;stroke-opacity:1"
       d="m 382.6187,183.17499 c 2.16321,1.74272 8.29462,6.10609 11.94759,6.94606 3.90256,0.89737 13.07021,1e-5 16.08668,1e-5 3.95857,0 14.31891,-3.88909 14.31891,-3.88909 0,0 -10.20296,-2.18466 -10.42983,-2.2981 -6.73074,-3.36537 -11.11386,-4.57313 -16.08667,-9.54594 -5.2633,2.40941 -13.83844,7.13887 -15.83668,8.78706 z"
       id="path3068-7"
       inkscape:connector-curvature="0"
       sodipodi:nodetypes="csscccc" />
    <path
       style="fill:#0b0a08;fill-opacity:1;stroke:#000000;stroke-width:3.73047686px;stroke-linecap:butt;stroke-linejoin:miter;stroke-opacity:1"
       d="m 771.54581,128.08496 c 38.95586,-34.327063 88.27425,-59.882495 138.78918,-85.543256 17.55994,-8.920153 93.66761,-17.583371 119.35871,-17.860684 21.9816,-0.237258 124.894,-6.118498 147.1165,-8.460321 11.0358,-1.162932 71.6995,-7.6415853 82.3482,-8.4603213 15.5613,-1.1964358 40.8814,-4.3164158 57.3662,-5.6402149 8.5178,-0.6840054 43.4687,-6.5739712 51.8147,-9.4003539 31.1006,-10.5324239 43.6131,-9.1296339 69.3945,-15.9806099 6.2001,-1.64755 35.1836,-12.231745 40.7115,-15.040577 17.9506,-0.477426 45.1401,-16.583582 59.2168,-21.620824 11.4269,-4.089077 35.2069,-14.446956 48.0205,-20.956108 17.8383,-9.061518 24.738,-15.030608 40.9633,-23.27279 0.1339,4.252566 25.7485,-15.89677 25.7485,-14.05332 0,5.45763 -24.3921,21.814884 -30.5336,25.380967 -13.7425,7.97963 -31.0691,20.0128 -47.1883,28.201074 -7.5537,3.837151 -33.4682,15.579629 -38.861,19.740754 -19.0416,14.692798 -48.037,29.03936 -66.46,43.90635994 -24.3599,19.65784206 -54.288,34.53729306 -76.9555,51.03725806 -17.5335,12.762902 -35.1376,27.836523 -47.1883,46.061746 -31.5506,47.716441 45.6148,85.271171 62.9178,89.303411 10.7675,2.50921 31.4589,-0.39926 31.4589,0.94003 0,4.97215 -38.5719,23.20722 -42.562,27.26103 -8.5511,8.68759 -22.6769,11.04948 -34.2347,16.92065 -58.1446,29.53648 -129.1111,21.62082 -199.8564,21.62082 -36.6774,0 -149.2134,-15.6296 -173.0238,-13.1605 -6.71663,0.6965 -86.87478,-16.86992 -92.52617,-19.74075 C 870.92497,205.82903 795.02686,179.5571 778.9479,168.5065 762.95846,157.5174 760.11332,147.01714 771.54581,128.08496 z"
       id="path3066-7-6"
       inkscape:connector-curvature="0"
       sodipodi:nodetypes="cssssssscsscsssssssssssssssc" />
    <path
       style="fill:#7a7975;fill-opacity:1;stroke:#000000;stroke-width:3.73047686px;stroke-linecap:butt;stroke-linejoin:miter;stroke-opacity:1"
       d="m 811.077,96.782067 c 8.00614,6.552873 30.69876,22.959773 44.21857,26.118183 14.44355,3.37423 48.37343,4e-5 59.53752,4e-5 14.65085,0 52.99493,-14.62354 52.99493,-14.62354 0,0 -37.76161,-8.21464 -38.60127,-8.641189 -24.91077,-12.654265 -41.13289,-17.195622 -59.53749,-35.894094 -19.47971,9.059727 -51.21668,26.843169 -58.61226,33.0406 z"
       id="path3068-7-0"
       inkscape:connector-curvature="0"
       sodipodi:nodetypes="csscccc" />
    <path
       style="fill:#a17e56;stroke:#000000;stroke-width:1px;stroke-linecap:butt;stroke-linejoin:miter;stroke-opacity:1;fill-opacity:1"
       d="m 346,349.86218 c 7.05665,-9.48377 30.44147,-27.88946 37,-30.5 16.5322,-6.15487 35.1318,-7.17941 49.5,-7.5 10.04033,-0.22403 21.76008,1.14759 27.5,3 8.46135,2.73068 32.21851,9.21665 36.5,10.5 12.85246,3.85246 52.04302,15.55756 65.5,20.5 24.48713,8.99357 56.45387,25.45387 73,31.5 6.31583,2.30787 -13.91757,-4.65624 22,9.5 0.97499,0.38428 19.88647,-5 26,-5 5.86944,0 30.39908,-1.10092 34,2.5 1.74024,1.74024 4.56237,15.37527 2.5,19.5 -6.38477,12.76955 -20.4721,3.14331 -29,-1 -2.64959,-1.28731 -11.09332,-0.11813 -16,5 -2.07156,2.16084 -15.52019,8.19107 -18,9.5 -12.70737,6.70737 -22.25043,9.84182 -35.5,17 -31.49208,17.01383 -61.10126,26.18667 -86,34 -6.72528,2.24176 -31.78356,10.22552 -38.5,12.5 -62.76531,21.25511 -92.76827,6.90934 -103.5,4 -16.78668,-4.55082 -26.2166,-13.99893 -33.5,-21.5 -8.80351,-9.06662 -16.21554,-19.79093 -19.5,-24 -5.35312,-6.86006 -7.73858,-21.47717 -10,-30.5 -4.78317,-19.08434 6.98578,-46.88536 16,-59 z"
       id="path3956"
       inkscape:connector-curvature="0"
       sodipodi:nodetypes="scssssssssssssscssssss" />
    <path
       style="fill:#74746f;stroke:#000000;stroke-width:1px;stroke-linecap:butt;stroke-linejoin:miter;stroke-opacity:1;fill-opacity:1"
       d="m 441,416.86218 c 0.14457,6.7324 -1.00906,45.07444 -0.2981,57.96967 6.84966,0.58753 31.24612,-0.43934 41.17678,-0.43934 5.21209,0 21.32627,-0.54896 36.01041,-1.17678 0.21686,-10.25239 0.52403,-48.94043 0.11091,-55.85355 -18.99519,-0.38284 -41.73654,-0.29289 -41.73654,-0.29289 0,0 -29.73193,-0.56066 -35.26346,-0.20711 z"
       id="path3958"
       inkscape:connector-curvature="0"
       sodipodi:nodetypes="ccccccc" />
    <path
       style="fill:#74746f;stroke:#000000;stroke-width:1px;stroke-linecap:butt;stroke-linejoin:miter;stroke-opacity:1;fill-opacity:1"
       d="m 471.5,432.80152 c -8.40723,3.35103 -10.08622,9.34359 -10.5,15.06066 -0.49882,6.89217 16.54585,20.45415 27,10 13.70398,-13.70398 3.24681,-32.93152 -16.5,-25.06066 z"
       id="path3960"
       inkscape:connector-curvature="0"
       sodipodi:nodetypes="ssss" />
    <path
       style="fill:#787570;stroke:#000000;stroke-width:1px;stroke-linecap:butt;stroke-linejoin:miter;stroke-opacity:1;fill-opacity:1"
       d="m 358.85669,435.85346 c 0,0 220.33866,4.82173 262.15984,8.39689 7.64354,0.65342 6.43123,23.18653 -1.23744,22.98097 -73.07337,-1.9587 -261.98306,-5.12652 -261.98306,-5.12652 z"
       id="path3962"
       inkscape:connector-curvature="0"
       sodipodi:nodetypes="csscc" />
    <path
       style="fill:#363125;stroke:#000000;stroke-width:1px;stroke-linecap:butt;stroke-linejoin:miter;stroke-opacity:1;fill-opacity:1"
       d="m 377.94857,370.53447 c 4.08741,0.38212 17.67005,0.48863 18.73834,0.53033 7.051,0.27519 17.9582,0.78012 22.80419,0.88388 -0.40699,-3.30532 0.53033,-6.21076 0.53033,-7.77817 0,-1.73169 0.44314,-3.7995 0.35355,-6.54074 -8.0939,-0.84606 -19.20918,-1.06066 -20.5061,-1.06066 -8.0427,0 -17.16685,-1.22964 -21.56675,-0.88388 -0.74701,5.54032 -0.29566,10.66448 -0.35356,14.84924 z"
       id="path3968"
       inkscape:connector-curvature="0"
       sodipodi:nodetypes="cscscscc" />
    <path
       sodipodi:type="arc"
       style="fill:#000000;fill-opacity:1;stroke:#000000;stroke-opacity:1"
       id="path3972"
       sodipodi:cx="443.88629"
       sodipodi:cy="425.51202"
       sodipodi:rx="0.44194174"
       sodipodi:ry="0.53033006"
       d="m 444.32823,425.51202 a 0.44194174,0.53033006 0 1 1 -0.88388,0 0.44194174,0.53033006 0 1 1 0.88388,0 z"
       transform="matrix(0.630477,0,0,0.60873081,163.2307,165.38489)" />
    <path
       sodipodi:type="arc"
       style="fill:#000000;fill-opacity:1;stroke:#000000;stroke-opacity:1"
       id="path3972-8"
       sodipodi:cx="443.88629"
       sodipodi:cy="425.51202"
       sodipodi:rx="0.44194174"
       sodipodi:ry="0.53033006"
       d="m 444.32823,425.51202 a 0.44194174,0.53033006 0 1 1 -0.88388,0 0.44194174,0.53033006 0 1 1 0.88388,0 z"
       transform="matrix(0.630477,0,0,0.60873081,163.23069,160.21417)" />
    <path
       sodipodi:type="arc"
       style="fill:#000000;fill-opacity:1;stroke:#000000;stroke-opacity:1"
       id="path3972-1"
       sodipodi:cx="443.88629"
       sodipodi:cy="425.51202"
       sodipodi:rx="0.44194174"
       sodipodi:ry="0.53033006"
       d="m 444.32823,425.51202 a 0.44194174,0.53033006 0 1 1 -0.88388,0 0.44194174,0.53033006 0 1 1 0.88388,0 z"
       transform="matrix(0.630477,0,0,0.60873081,167.50772,160.16312)" />
    <path
       sodipodi:type="arc"
       style="fill:#000000;fill-opacity:1;stroke:#000000;stroke-opacity:1"
       id="path3972-9"
       sodipodi:cx="443.88629"
       sodipodi:cy="425.51202"
       sodipodi:rx="0.44194174"
       sodipodi:ry="0.53033006"
       d="m 444.32823,425.51202 a 0.44194174,0.53033006 0 1 1 -0.88388,0 0.44194174,0.53033006 0 1 1 0.88388,0 z"
       transform="matrix(0.630477,0,0,0.60873081,172.51146,160.12578)" />
    <path
       sodipodi:type="arc"
       style="fill:#000000;fill-opacity:1;stroke:#000000;stroke-opacity:1"
       id="path3972-0"
       sodipodi:cx="443.88629"
       sodipodi:cy="425.51202"
       sodipodi:rx="0.44194174"
       sodipodi:ry="0.53033006"
       d="m 444.32823,425.51202 a 0.44194174,0.53033006 0 1 1 -0.88388,0 0.44194174,0.53033006 0 1 1 0.88388,0 z"
       transform="matrix(0.630477,0,0,0.60873081,177.5496,160.03739)" />
    <path
       sodipodi:type="arc"
       style="fill:#000000;fill-opacity:1;stroke:#000000;stroke-opacity:1"
       id="path3972-7"
       sodipodi:cx="443.88629"
       sodipodi:cy="425.51202"
       sodipodi:rx="0.44194174"
       sodipodi:ry="0.53033006"
       d="m 444.32823,425.51202 a 0.44194174,0.53033006 0 1 1 -0.88388,0 0.44194174,0.53033006 0 1 1 0.88388,0 z"
       transform="matrix(0.630477,0,0,0.60873081,182.76451,160.03739)" />
    <path
       sodipodi:type="arc"
       style="fill:#000000;fill-opacity:1;stroke:#000000;stroke-opacity:1"
       id="path3972-4"
       sodipodi:cx="443.88629"
       sodipodi:cy="425.51202"
       sodipodi:rx="0.44194174"
       sodipodi:ry="0.53033006"
       d="m 444.32823,425.51202 a 0.44194174,0.53033006 0 1 1 -0.88388,0 0.44194174,0.53033006 0 1 1 0.88388,0 z"
       transform="matrix(0.630477,0,0,0.60873081,187.62587,160.12578)" />
    <path
       sodipodi:type="arc"
       style="fill:#000000;fill-opacity:1;stroke:#000000;stroke-opacity:1"
       id="path3972-87"
       sodipodi:cx="443.88629"
       sodipodi:cy="425.51202"
       sodipodi:rx="0.44194174"
       sodipodi:ry="0.53033006"
       d="m 444.32823,425.51202 a 0.44194174,0.53033006 0 1 1 -0.88388,0 0.44194174,0.53033006 0 1 1 0.88388,0 z"
       transform="matrix(0.630477,0,0,0.60873081,192.66401,160.0374)" />
    <path
       sodipodi:type="arc"
       style="fill:#000000;fill-opacity:1;stroke:#000000;stroke-opacity:1"
       id="path3972-6"
       sodipodi:cx="443.88629"
       sodipodi:cy="425.51202"
       sodipodi:rx="0.44194174"
       sodipodi:ry="0.53033006"
       d="m 444.32823,425.51202 a 0.44194174,0.53033006 0 1 1 -0.88388,0 0.44194174,0.53033006 0 1 1 0.88388,0 z"
       transform="matrix(0.630477,0,0,0.60873081,212.72817,160.21416)" />
    <path
       sodipodi:type="arc"
       style="fill:#000000;fill-opacity:1;stroke:#000000;stroke-opacity:1"
       id="path3972-49"
       sodipodi:cx="443.88629"
       sodipodi:cy="425.51202"
       sodipodi:rx="0.44194174"
       sodipodi:ry="0.53033006"
       d="m 444.32823,425.51202 a 0.44194174,0.53033006 0 1 1 -0.88388,0 0.44194174,0.53033006 0 1 1 0.88388,0 z"
       transform="matrix(0.630477,0,0,0.60873081,197.87892,160.03739)" />
    <path
       sodipodi:type="arc"
       style="fill:#000000;fill-opacity:1;stroke:#000000;stroke-opacity:1"
       id="path3972-71"
       sodipodi:cx="443.88629"
       sodipodi:cy="425.51202"
       sodipodi:rx="0.44194174"
       sodipodi:ry="0.53033006"
       d="m 444.32823,425.51202 a 0.44194174,0.53033006 0 1 1 -0.88388,0 0.44194174,0.53033006 0 1 1 0.88388,0 z"
       transform="matrix(0.630477,0,0,0.60873081,202.82867,160.21417)" />
    <path
       sodipodi:type="arc"
       style="fill:#000000;fill-opacity:1;stroke:#000000;stroke-opacity:1"
       id="path3972-86"
       sodipodi:cx="443.88629"
       sodipodi:cy="425.51202"
       sodipodi:rx="0.44194174"
       sodipodi:ry="0.53033006"
       d="m 444.32823,425.51202 a 0.44194174,0.53033006 0 1 1 -0.88388,0 0.44194174,0.53033006 0 1 1 0.88388,0 z"
       transform="matrix(0.630477,0,0,0.60873081,207.60164,159.949)" />
    <path
       sodipodi:type="arc"
       style="fill:#000000;fill-opacity:1;stroke:#000000;stroke-opacity:1"
       id="path3972-70"
       sodipodi:cx="443.88629"
       sodipodi:cy="425.51202"
       sodipodi:rx="0.44194174"
       sodipodi:ry="0.53033006"
       d="m 444.32823,425.51202 a 0.44194174,0.53033006 0 1 1 -0.88388,0 0.44194174,0.53033006 0 1 1 0.88388,0 z"
       transform="matrix(0.630477,0,0,0.60873081,217.85469,160.03739)" />
    <path
       sodipodi:type="arc"
       style="fill:#000000;fill-opacity:1;stroke:#000000;stroke-opacity:1"
       id="path3972-70-1"
       sodipodi:cx="443.88629"
       sodipodi:cy="425.51202"
       sodipodi:rx="0.44194174"
       sodipodi:ry="0.53033006"
       d="m 444.32823,425.51202 a 0.44194174,0.53033006 0 1 1 -0.88388,0 0.44194174,0.53033006 0 1 1 0.88388,0 z"
       transform="matrix(0.630477,0,0,0.60873081,222.71604,159.949)" />
    <path
       sodipodi:type="arc"
       style="fill:#000000;fill-opacity:1;stroke:#000000;stroke-opacity:1"
       id="path3972-70-3"
       sodipodi:cx="443.88629"
       sodipodi:cy="425.51202"
       sodipodi:rx="0.44194174"
       sodipodi:ry="0.53033006"
       d="m 444.32823,425.51202 a 0.44194174,0.53033006 0 1 1 -0.88388,0 0.44194174,0.53033006 0 1 1 0.88388,0 z"
       transform="matrix(0.630477,0,0,0.60873081,227.84257,160.12578)" />
    <path
       sodipodi:type="arc"
       style="fill:#000000;fill-opacity:1;stroke:#000000;stroke-opacity:1"
       id="path3972-70-7"
       sodipodi:cx="443.88629"
       sodipodi:cy="425.51202"
       sodipodi:rx="0.44194174"
       sodipodi:ry="0.53033006"
       d="m 444.32823,425.51202 a 0.44194174,0.53033006 0 1 1 -0.88388,0 0.44194174,0.53033006 0 1 1 0.88388,0 z"
       transform="matrix(0.630477,0,0,0.60873081,232.88071,160.12578)" />
    <path
       sodipodi:type="arc"
       style="fill:#000000;fill-opacity:1;stroke:#000000;stroke-opacity:1"
       id="path3972-70-6"
       sodipodi:cx="443.88629"
       sodipodi:cy="425.51202"
       sodipodi:rx="0.44194174"
       sodipodi:ry="0.53033006"
       d="m 444.32823,425.51202 a 0.44194174,0.53033006 0 1 1 -0.88388,0 0.44194174,0.53033006 0 1 1 0.88388,0 z"
       transform="matrix(0.630477,0,0,0.60873081,236.59302,160.12578)" />
    <path
       sodipodi:type="arc"
       style="fill:#000000;fill-opacity:1;stroke:#000000;stroke-opacity:1"
       id="path3972-70-2"
       sodipodi:cx="443.88629"
       sodipodi:cy="425.51202"
       sodipodi:rx="0.44194174"
       sodipodi:ry="0.53033006"
       d="m 444.32823,425.51202 a 0.44194174,0.53033006 0 1 1 -0.88388,0 0.44194174,0.53033006 0 1 1 0.88388,0 z"
       transform="matrix(0.630477,0,0,0.60873081,163.1423,171.17432)" />
    <path
       sodipodi:type="arc"
       style="fill:#000000;fill-opacity:1;stroke:#000000;stroke-opacity:1"
       id="path3972-70-65"
       sodipodi:cx="443.88629"
       sodipodi:cy="425.51202"
       sodipodi:rx="0.44194174"
       sodipodi:ry="0.53033006"
       d="m 444.32823,425.51202 a 0.44194174,0.53033006 0 1 1 -0.88388,0 0.44194174,0.53033006 0 1 1 0.88388,0 z"
       transform="matrix(0.630477,0,0,0.60873081,163.1423,176.91957)" />
    <path
       sodipodi:type="arc"
       style="fill:#000000;fill-opacity:1;stroke:#000000;stroke-opacity:1"
       id="path3972-70-67"
       sodipodi:cx="443.88629"
       sodipodi:cy="425.51202"
       sodipodi:rx="0.44194174"
       sodipodi:ry="0.53033006"
       d="m 444.32823,425.51202 a 0.44194174,0.53033006 0 1 1 -0.88388,0 0.44194174,0.53033006 0 1 1 0.88388,0 z"
       transform="matrix(0.630477,0,0,0.60873081,236.6814,165.51747)" />
    <path
       sodipodi:type="arc"
       style="fill:#000000;fill-opacity:1;stroke:#000000;stroke-opacity:1"
       id="path3972-70-30"
       sodipodi:cx="443.88629"
       sodipodi:cy="425.51202"
       sodipodi:rx="0.44194174"
       sodipodi:ry="0.53033006"
       d="m 444.32823,425.51202 a 0.44194174,0.53033006 0 1 1 -0.88388,0 0.44194174,0.53033006 0 1 1 0.88388,0 z"
       transform="matrix(0.630477,0,0,0.60873081,236.76979,171.17432)" />
    <path
       sodipodi:type="arc"
       style="fill:#000000;fill-opacity:1;stroke:#000000;stroke-opacity:1"
       id="path3972-70-5"
       sodipodi:cx="443.88629"
       sodipodi:cy="425.51202"
       sodipodi:rx="0.44194174"
       sodipodi:ry="0.53033006"
       d="m 444.32823,425.51202 a 0.44194174,0.53033006 0 1 1 -0.88388,0 0.44194174,0.53033006 0 1 1 0.88388,0 z"
       transform="matrix(0.630477,0,0,0.60873081,236.76979,176.21245)" />
    <path
       sodipodi:type="arc"
       style="fill:#000000;fill-opacity:1;stroke:#000000;stroke-opacity:1"
       id="path3972-70-27"
       sodipodi:cx="443.88629"
       sodipodi:cy="425.51202"
       sodipodi:rx="0.44194174"
       sodipodi:ry="0.53033006"
       d="m 444.32823,425.51202 a 0.44194174,0.53033006 0 1 1 -0.88388,0 0.44194174,0.53033006 0 1 1 0.88388,0 z"
       transform="matrix(0.630477,0,0,0.60873081,236.85818,180.01315)" />
    <path
       sodipodi:type="arc"
       style="fill:#000000;fill-opacity:1;stroke:#000000;stroke-opacity:1"
       id="path3972-70-72"
       sodipodi:cx="443.88629"
       sodipodi:cy="425.51202"
       sodipodi:rx="0.44194174"
       sodipodi:ry="0.53033006"
       d="m 444.32823,425.51202 a 0.44194174,0.53033006 0 1 1 -0.88388,0 0.44194174,0.53033006 0 1 1 0.88388,0 z"
       transform="matrix(0.630477,0,0,0.60873081,162.17003,206.70644)" />
    <path
       sodipodi:type="arc"
       style="fill:#000000;fill-opacity:1;stroke:#000000;stroke-opacity:1"
       id="path3972-70-59"
       sodipodi:cx="443.88629"
       sodipodi:cy="425.51202"
       sodipodi:rx="0.44194174"
       sodipodi:ry="0.53033006"
       d="m 444.32823,425.51202 a 0.44194174,0.53033006 0 1 1 -0.88388,0 0.44194174,0.53033006 0 1 1 0.88388,0 z"
       transform="matrix(0.630477,0,0,0.60873081,162.5149,211.0274)" />
    <path
       sodipodi:type="arc"
       style="fill:#000000;fill-opacity:1;stroke:#000000;stroke-opacity:1"
       id="path3972-70-55"
       sodipodi:cx="443.88629"
       sodipodi:cy="425.51202"
       sodipodi:rx="0.44194174"
       sodipodi:ry="0.53033006"
       d="m 444.32823,425.51202 a 0.44194174,0.53033006 0 1 1 -0.88388,0 0.44194174,0.53033006 0 1 1 0.88388,0 z"
       transform="matrix(0.630477,0,0,0.60873081,162.8274,214.1524)" />
    <path
       sodipodi:type="arc"
       style="fill:#000000;fill-opacity:1;stroke:#000000;stroke-opacity:1"
       id="path3972-70-24"
       sodipodi:cx="443.88629"
       sodipodi:cy="425.51202"
       sodipodi:rx="0.44194174"
       sodipodi:ry="0.53033006"
       d="m 444.32823,425.51202 a 0.44194174,0.53033006 0 1 1 -0.88388,0 0.44194174,0.53033006 0 1 1 0.88388,0 z"
       transform="matrix(0.630477,0,0,0.60873081,167.9524,214.3399)" />
    <path
       sodipodi:type="arc"
       style="fill:#000000;fill-opacity:1;stroke:#000000;stroke-opacity:1"
       id="path3972-70-4"
       sodipodi:cx="443.88629"
       sodipodi:cy="425.51202"
       sodipodi:rx="0.44194174"
       sodipodi:ry="0.53033006"
       d="m 444.32823,425.51202 a 0.44194174,0.53033006 0 1 1 -0.88388,0 0.44194174,0.53033006 0 1 1 0.88388,0 z"
       transform="matrix(0.630477,0,0,0.60873081,172.5774,214.2774)" />
    <path
       sodipodi:type="arc"
       style="fill:#000000;fill-opacity:1;stroke:#000000;stroke-opacity:1"
       id="path3972-70-32"
       sodipodi:cx="443.88629"
       sodipodi:cy="425.51202"
       sodipodi:rx="0.44194174"
       sodipodi:ry="0.53033006"
       d="m 444.32823,425.51202 a 0.44194174,0.53033006 0 1 1 -0.88388,0 0.44194174,0.53033006 0 1 1 0.88388,0 z"
       transform="matrix(0.630477,0,0,0.60873081,177.4524,214.2149)" />
    <path
       sodipodi:type="arc"
       style="fill:#000000;fill-opacity:1;stroke:#000000;stroke-opacity:1"
       id="path3972-70-300"
       sodipodi:cx="443.88629"
       sodipodi:cy="425.51202"
       sodipodi:rx="0.44194174"
       sodipodi:ry="0.53033006"
       d="m 444.32823,425.51202 a 0.44194174,0.53033006 0 1 1 -0.88388,0 0.44194174,0.53033006 0 1 1 0.88388,0 z"
       transform="matrix(0.630477,0,0,0.60873081,182.8274,214.2774)" />
    <path
       sodipodi:type="arc"
       style="fill:#000000;fill-opacity:1;stroke:#000000;stroke-opacity:1"
       id="path3972-70-43"
       sodipodi:cx="443.88629"
       sodipodi:cy="425.51202"
       sodipodi:rx="0.44194174"
       sodipodi:ry="0.53033006"
       d="m 444.32823,425.51202 a 0.44194174,0.53033006 0 1 1 -0.88388,0 0.44194174,0.53033006 0 1 1 0.88388,0 z"
       transform="matrix(0.630477,0,0,0.60873081,187.6399,214.1524)" />
    <path
       sodipodi:type="arc"
       style="fill:#000000;fill-opacity:1;stroke:#000000;stroke-opacity:1"
       id="path3972-70-13"
       sodipodi:cx="443.88629"
       sodipodi:cy="425.51202"
       sodipodi:rx="0.44194174"
       sodipodi:ry="0.53033006"
       d="m 444.32823,425.51202 a 0.44194174,0.53033006 0 1 1 -0.88388,0 0.44194174,0.53033006 0 1 1 0.88388,0 z"
       transform="matrix(0.630477,0,0,0.60873081,192.8899,214.0899)" />
    <path
       sodipodi:type="arc"
       style="fill:#000000;fill-opacity:1;stroke:#000000;stroke-opacity:1"
       id="path3972-70-9"
       sodipodi:cx="443.88629"
       sodipodi:cy="425.51202"
       sodipodi:rx="0.44194174"
       sodipodi:ry="0.53033006"
       d="m 444.32823,425.51202 a 0.44194174,0.53033006 0 1 1 -0.88388,0 0.44194174,0.53033006 0 1 1 0.88388,0 z"
       transform="matrix(0.630477,0,0,0.60873081,197.6399,214.0274)" />
    <path
       sodipodi:type="arc"
       style="fill:#000000;fill-opacity:1;stroke:#000000;stroke-opacity:1"
       id="path3972-70-37"
       sodipodi:cx="443.88629"
       sodipodi:cy="425.51202"
       sodipodi:rx="0.44194174"
       sodipodi:ry="0.53033006"
       d="m 444.32823,425.51202 a 0.44194174,0.53033006 0 1 1 -0.88388,0 0.44194174,0.53033006 0 1 1 0.88388,0 z"
       transform="matrix(0.630477,0,0,0.60873081,202.8274,214.1524)" />
    <path
       sodipodi:type="arc"
       style="fill:#000000;fill-opacity:1;stroke:#000000;stroke-opacity:1"
       id="path3972-70-559"
       sodipodi:cx="443.88629"
       sodipodi:cy="425.51202"
       sodipodi:rx="0.44194174"
       sodipodi:ry="0.53033006"
       d="m 444.32823,425.51202 a 0.44194174,0.53033006 0 1 1 -0.88388,0 0.44194174,0.53033006 0 1 1 0.88388,0 z"
       transform="matrix(0.630477,0,0,0.60873081,207.8274,213.9649)" />
    <path
       sodipodi:type="arc"
       style="fill:#000000;fill-opacity:1;stroke:#000000;stroke-opacity:1"
       id="path3972-70-75"
       sodipodi:cx="443.88629"
       sodipodi:cy="425.51202"
       sodipodi:rx="0.44194174"
       sodipodi:ry="0.53033006"
       d="m 444.32823,425.51202 a 0.44194174,0.53033006 0 1 1 -0.88388,0 0.44194174,0.53033006 0 1 1 0.88388,0 z"
       transform="matrix(0.630477,0,0,0.60873081,212.8274,213.9649)" />
    <path
       sodipodi:type="arc"
       style="fill:#000000;fill-opacity:1;stroke:#000000;stroke-opacity:1"
       id="path3972-70-57"
       sodipodi:cx="443.88629"
       sodipodi:cy="425.51202"
       sodipodi:rx="0.44194174"
       sodipodi:ry="0.53033006"
       d="m 444.32823,425.51202 a 0.44194174,0.53033006 0 1 1 -0.88388,0 0.44194174,0.53033006 0 1 1 0.88388,0 z"
       transform="matrix(0.630477,0,0,0.60873081,217.7649,213.3399)" />
    <path
       sodipodi:type="arc"
       style="fill:#000000;fill-opacity:1;stroke:#000000;stroke-opacity:1"
       id="path3972-70-92"
       sodipodi:cx="443.88629"
       sodipodi:cy="425.51202"
       sodipodi:rx="0.44194174"
       sodipodi:ry="0.53033006"
       d="m 444.32823,425.51202 a 0.44194174,0.53033006 0 1 1 -0.88388,0 0.44194174,0.53033006 0 1 1 0.88388,0 z"
       transform="matrix(0.630477,0,0,0.60873081,222.7024,213.2774)" />
    <path
       sodipodi:type="arc"
       style="fill:#000000;fill-opacity:1;stroke:#000000;stroke-opacity:1"
       id="path3972-70-35"
       sodipodi:cx="443.88629"
       sodipodi:cy="425.51202"
       sodipodi:rx="0.44194174"
       sodipodi:ry="0.53033006"
       d="m 444.32823,425.51202 a 0.44194174,0.53033006 0 1 1 -0.88388,0 0.44194174,0.53033006 0 1 1 0.88388,0 z"
       transform="matrix(0.630477,0,0,0.60873081,227.6399,213.0899)" />
    <path
       sodipodi:type="arc"
       style="fill:#000000;fill-opacity:1;stroke:#000000;stroke-opacity:1"
       id="path3972-70-40"
       sodipodi:cx="443.88629"
       sodipodi:cy="425.51202"
       sodipodi:rx="0.44194174"
       sodipodi:ry="0.53033006"
       d="m 444.32823,425.51202 a 0.44194174,0.53033006 0 1 1 -0.88388,0 0.44194174,0.53033006 0 1 1 0.88388,0 z"
       transform="matrix(0.630477,0,0,0.60873081,232.8274,212.8399)" />
    <path
       sodipodi:type="arc"
       style="fill:#000000;fill-opacity:1;stroke:#000000;stroke-opacity:1"
       id="path3972-70-53"
       sodipodi:cx="443.88629"
       sodipodi:cy="425.51202"
       sodipodi:rx="0.44194174"
       sodipodi:ry="0.53033006"
       d="m 444.32823,425.51202 a 0.44194174,0.53033006 0 1 1 -0.88388,0 0.44194174,0.53033006 0 1 1 0.88388,0 z"
       transform="matrix(0.630477,0,0,0.60873081,236.0774,212.8399)" />
    <path
       sodipodi:type="arc"
       style="fill:#000000;fill-opacity:1;stroke:#000000;stroke-opacity:1"
       id="path3972-70-270"
       sodipodi:cx="443.88629"
       sodipodi:cy="425.51202"
       sodipodi:rx="0.44194174"
       sodipodi:ry="0.53033006"
       d="m 444.32823,425.51202 a 0.44194174,0.53033006 0 1 1 -0.88388,0 0.44194174,0.53033006 0 1 1 0.88388,0 z"
       transform="matrix(0.630477,0,0,0.60873081,236.1399,209.2774)" />
    <path
       style="fill:#a17e56;fill-opacity:1;stroke:#000000;stroke-width:1px;stroke-linecap:butt;stroke-linejoin:miter;stroke-opacity:1"
       d="m -198.56018,550.1581 c 7.05666,-9.48377 30.44148,-27.88946 37,-30.5 16.53221,-6.15487 35.1318,-7.17941 49.50001,-7.5 10.04032,-0.22403 21.760075,1.14759 27.499995,3 8.46135,2.73068 32.21851,9.21665 36.5,10.5 12.85246,3.85246 52.043025,15.55756 65.500005,20.5 24.48713,8.99357 56.45387,25.45387 73,31.5 6.31583,2.30787 -13.91757,-4.65624 22,9.5 0.97499,0.38428 19.88647,-5 26,-5 5.86944,0 30.39908,-1.10092 34,2.5 1.74024,1.74024 4.56237,15.37527 2.5,19.5 -6.38477,12.76955 -20.4721,3.14331 -29,-1 -2.64959,-1.28731 -11.09332,-0.11813 -16,5 -2.07156,2.16084 -15.52019,8.19107 -18,9.5 -12.70737,6.70737 -22.25043,9.84182 -35.5,17 -31.49208,17.01383 -61.10126,26.18667 -86,34 -6.725285,2.24176 -31.783565,10.22552 -38.500005,12.5 -62.765305,21.25511 -92.768265,6.90934 -103.499995,4 -16.78668,-4.55082 -26.2166,-13.99893 -33.5,-21.5 -8.80351,-9.06662 -16.21554,-19.79093 -19.5,-24 -5.35312,-6.86006 -7.73858,-21.47717 -10,-30.5 -4.78317,-19.08434 6.98578,-46.88536 16,-59 z"
       id="path3956-0"
       inkscape:connector-curvature="0"
       sodipodi:nodetypes="scssssssssssssscssssss" />
    <path
       style="fill:#74746f;fill-opacity:1;stroke:#000000;stroke-width:1px;stroke-linecap:butt;stroke-linejoin:miter;stroke-opacity:1"
       d="m -103.56018,617.1581 c 0.14457,6.7324 -1.00905,45.07444 -0.29809,57.96967 6.849655,0.58753 31.246115,-0.43934 41.176775,-0.43934 5.21209,0 21.32627,-0.54896 36.01041,-1.17678 0.21686,-10.25239 0.52403,-48.94043 0.11091,-55.85355 -18.99519,-0.38284 -41.73654,-0.29289 -41.73654,-0.29289 0,0 -29.73193,-0.56066 -35.263465,-0.20711 z"
       id="path3958-9"
       inkscape:connector-curvature="0"
       sodipodi:nodetypes="ccccccc" />
    <path
       style="fill:#74746f;fill-opacity:1;stroke:#000000;stroke-width:1px;stroke-linecap:butt;stroke-linejoin:miter;stroke-opacity:1"
       d="m -73.060175,633.09744 c -8.40723,3.35103 -10.08622,9.34359 -10.5,15.06066 -0.49882,6.89217 16.54585,20.45415 27,10 13.70398,-13.70398 3.24681,-32.93152 -16.5,-25.06066 z"
       id="path3960-2"
       inkscape:connector-curvature="0"
       sodipodi:nodetypes="ssss" />
    <path
       style="fill:#787570;fill-opacity:1;stroke:#000000;stroke-width:1px;stroke-linecap:butt;stroke-linejoin:miter;stroke-opacity:1"
       d="m -185.70348,636.14938 c 0,0 220.33866,4.82173 262.15984,8.39689 7.64354,0.65342 6.43123,23.18653 -1.23744,22.98097 -73.07337,-1.9587 -261.98306,-5.12652 -261.98306,-5.12652 z"
       id="path3962-4"
       inkscape:connector-curvature="0"
       sodipodi:nodetypes="csscc" />
    <path
       style="fill:#363125;fill-opacity:1;stroke:#000000;stroke-width:1px;stroke-linecap:butt;stroke-linejoin:miter;stroke-opacity:1"
       d="m -166.6116,570.83039 c 4.08741,0.38212 17.67005,0.48863 18.73834,0.53033 7.051,0.27519 17.9582,0.78012 22.80419,0.88388 -0.407,-3.30532 0.53032,-6.21076 0.53032,-7.77817 0,-1.73169 0.44314,-3.7995 0.35356,-6.54074 -8.0939,-0.84606 -19.20918,-1.06066 -20.5061,-1.06066 -8.0427,0 -17.16685,-1.22964 -21.56675,-0.88388 -0.74701,5.54032 -0.29566,10.66448 -0.35356,14.84924 z"
       id="path3968-9"
       inkscape:connector-curvature="0"
       sodipodi:nodetypes="cscscscc" />
    <path
       sodipodi:type="arc"
       style="fill:#000000;fill-opacity:1;stroke:#000000;stroke-opacity:1"
       id="path3972-1-6"
       sodipodi:cx="443.88629"
       sodipodi:cy="425.51202"
       sodipodi:rx="0.44194174"
       sodipodi:ry="0.53033006"
       d="m 444.32823,425.51202 a 0.44194174,0.53033006 0 1 1 -0.88388,0 0.44194174,0.53033006 0 1 1 0.88388,0 z"
       transform="matrix(0.630477,0,0,0.60873081,-377.05245,360.45904)" />
    <path
       style="fill:#0b0a08;fill-opacity:1;stroke:#000000;stroke-width:0.61537689px;stroke-linecap:butt;stroke-linejoin:miter;stroke-opacity:1"
       d="m 750.076,458.36511 c 6.76887,-5.37585 15.3383,-9.37801 24.11564,-13.39665 3.05117,-1.39696 16.27543,-2.75368 20.73945,-2.79711 3.81947,-0.0372 21.70124,-0.9582 25.56257,-1.32494 1.91755,-0.18213 12.45831,-1.19673 14.30861,-1.32495 2.70389,-0.18737 7.10343,-0.67598 9.9678,-0.88329 1.48002,-0.10712 7.553,-1.02953 9.00317,-1.47216 5.40396,-1.64945 7.5781,-1.42976 12.05782,-2.50267 1.0773,-0.25802 6.1134,-1.91558 7.07392,-2.35546 3.11904,-0.0748 7.84342,-2.5971 10.28934,-3.38596 1.98551,-0.64038 6.11746,-2.2625 8.34392,-3.28187 3.09953,-1.4191 4.29841,-2.3539 7.11767,-3.64468 0.0233,0.66598 4.474,-2.48954 4.474,-2.20084 0,0.8547 -4.23831,3.41635 -5.30544,3.97483 -2.38786,1.24966 -5.39849,3.13414 -8.19932,4.41648 -1.3125,0.60092 -5.81534,2.43987 -6.75237,3.09153 -3.30862,2.30099 -8.34679,4.54776 -11.54793,6.87603 -4.2327,3.07856 -9.43294,5.40878 -13.37157,7.99278 -3.04657,1.99876 -6.10541,4.35939 -8.19931,7.21358 -5.48216,7.47272 7.92591,13.35405 10.93242,13.98552 1.87094,0.39296 5.46621,-0.0625 5.46621,0.14722 0,0.77867 -6.70215,3.63441 -7.39546,4.26926 -1.48581,1.36053 -3.94028,1.73042 -5.94853,2.64989 -10.10305,4.62561 -22.43399,3.38596 -34.72651,3.38596 -6.37297,0 -25.92693,-2.4477 -30.06416,-2.06102 -1.16705,0.10908 -15.09512,-2.64194 -16.07709,-3.09153 -4.59699,-2.1047 -17.78484,-6.21907 -20.57868,-7.94967 -2.77828,-1.72096 -3.27265,-3.36538 -1.28617,-6.33028 z"
       id="path3066-7-9"
       inkscape:connector-curvature="0"
       sodipodi:nodetypes="cssssssscsscsssssssssssssssc" />
    <path
       style="fill:#7a7975;fill-opacity:1;stroke:#000000;stroke-width:0.61537689px;stroke-linecap:butt;stroke-linejoin:miter;stroke-opacity:1"
       d="m 756.94484,453.46286 c 1.39112,1.02623 5.33413,3.59566 7.6833,4.09029 2.50967,0.52843 8.40524,0 10.34508,0 2.54569,0 9.20826,-2.29014 9.20826,-2.29014 0,0 -6.56136,-1.28647 -6.70726,-1.35327 -4.32843,-1.98174 -7.14714,-2.69295 -10.34507,-5.62126 -3.38474,1.41882 -8.89928,4.20382 -10.18431,5.17438 z"
       id="path3068-7-04"
       inkscape:connector-curvature="0"
       sodipodi:nodetypes="csscccc" />
    <path
       style="fill:#a17e56;fill-opacity:1;stroke:#000000;stroke-width:0.36910981px;stroke-linecap:butt;stroke-linejoin:miter;stroke-opacity:1"
       d="m 620.79415,37.900589 c 2.79428,-3.263033 12.05414,-9.595786 14.65118,-10.493981 6.54638,-2.117675 13.91141,-2.470183 19.60089,-2.580487 3.97575,-0.07708 8.61651,0.394846 10.88939,1.032195 3.35051,0.939531 12.75782,3.171126 14.45319,3.612682 5.08929,1.325496 20.60788,5.352811 25.93654,7.053331 9.69636,3.094372 22.35448,8.757784 28.90638,10.838045 2.50093,0.794057 -5.51105,-1.602049 8.71151,3.268617 0.38607,0.132217 7.8746,-1.720324 10.29542,-1.720324 2.32417,0 12.03736,-0.378788 13.46324,0.860162 0.6891,0.598755 1.8066,5.290092 0.98995,6.709267 -2.52823,4.393554 -8.1065,1.081503 -11.48336,-0.344065 -1.04918,-0.442918 -4.3927,-0.04064 -6.33564,1.720325 -0.82029,0.743469 -6.14565,2.81826 -7.1276,3.268617 -5.03184,2.30777 -8.81068,3.386225 -14.05721,5.849103 -12.47016,5.853863 -24.19474,9.009915 -34.05409,11.698208 -2.66306,0.771311 -12.58558,3.518243 -15.24514,4.300812 -24.85367,7.313138 -36.73417,2.377261 -40.9837,1.37626 -6.64715,-1.565778 -10.38119,-4.816541 -13.26525,-7.397396 -3.486,-3.119506 -6.42099,-6.809365 -7.72157,-8.257559 -2.11971,-2.360306 -3.0643,-7.389541 -3.95978,-10.49398 -1.89402,-6.566253 2.76622,-16.13161 6.33565,-20.299832 z"
       id="path3956-3"
       inkscape:connector-curvature="0"
       sodipodi:nodetypes="scssssssssssssscssssss" />
    <path
       style="fill:#74746f;fill-opacity:1;stroke:#000000;stroke-width:0.36910981px;stroke-linecap:butt;stroke-linejoin:miter;stroke-opacity:1"
       d="m 658.41203,60.95294 c 0.0573,2.316383 -0.39956,15.508534 -0.11804,19.945331 2.71232,0.202148 12.37277,-0.151162 16.30509,-0.151162 2.06387,0 8.44473,-0.188878 14.25932,-0.404888 0.0859,-3.527488 0.20751,-16.838686 0.0439,-19.217248 -7.52167,-0.131722 -16.52674,-0.100774 -16.52674,-0.100774 0,0 -11.77318,-0.192903 -13.96355,-0.07126 z"
       id="path3958-2"
       inkscape:connector-curvature="0"
       sodipodi:nodetypes="ccccccc" />
    <path
       style="fill:#74746f;fill-opacity:1;stroke:#000000;stroke-width:0.36910981px;stroke-linecap:butt;stroke-linejoin:miter;stroke-opacity:1"
       d="m 670.48936,66.437108 c -3.32908,1.152972 -3.99392,3.214802 -4.15777,5.181845 -0.19752,2.371354 6.55179,7.037556 10.6914,3.440649 5.42647,-4.715059 1.28566,-11.330581 -6.53363,-8.622494 z"
       id="path3960-1"
       inkscape:connector-curvature="0"
       sodipodi:nodetypes="ssss" />
    <path
       style="fill:#787570;fill-opacity:1;stroke:#000000;stroke-width:0.36910981px;stroke-linecap:butt;stroke-linejoin:miter;stroke-opacity:1"
       d="m 625.88511,67.487174 c 0,0 87.24921,1.658988 103.80946,2.889075 3.02668,0.224819 2.54663,7.977672 -0.48999,7.906946 -28.93543,-0.67392 -103.73947,-1.763856 -103.73947,-1.763856 z"
       id="path3962-6"
       inkscape:connector-curvature="0"
       sodipodi:nodetypes="csscc" />
    <path
       style="fill:#363125;fill-opacity:1;stroke:#000000;stroke-width:0.36910981px;stroke-linecap:butt;stroke-linejoin:miter;stroke-opacity:1"
       d="m 633.44507,45.013199 c 1.61852,0.131474 6.99695,0.16812 7.41997,0.182468 2.79204,0.09468 7.11104,0.268412 9.02995,0.304112 -0.16116,-1.137245 0.21,-2.136905 0.21,-2.676196 0,-0.595814 0.17547,-1.307274 0.14,-2.250439 -3.20501,-0.2911 -7.60641,-0.364936 -8.11996,-0.364936 -3.18473,0 -6.79769,-0.423076 -8.53996,-0.304112 -0.2958,1.90623 -0.11707,3.669274 -0.14,5.109103 z"
       id="path3968-2"
       inkscape:connector-curvature="0"
       sodipodi:nodetypes="cscscscc" />
    <path
       sodipodi:type="arc"
       style="fill:#000000;fill-opacity:1;stroke:#000000;stroke-opacity:1"
       id="path3972-0-0"
       sodipodi:cx="443.88629"
       sodipodi:cy="425.51202"
       sodipodi:rx="0.44194174"
       sodipodi:ry="0.53033006"
       d="m 444.32823,425.51202 a 0.44194174,0.53033006 0 1 1 -0.88388,0 0.44194174,0.53033006 0 1 1 0.88388,0 z"
       transform="matrix(0.24965486,0,0,0.20944293,554.09154,-27.411464)" />
    <path
       style="fill:#af9062;stroke:#000000;stroke-width:1px;stroke-linecap:butt;stroke-linejoin:miter;stroke-opacity:1;fill-opacity:1"
       d="m 540,575.86218 c -6.50701,6.00701 -5.40923,7.65923 -5.5,18.5 0.41198,3.08803 1.30357,5.94643 -0.25,10 -0.84957,2.2167 -7.84999,13.80002 -6.5,16.5 2.50364,5.00728 6.9399,0.4399 10.25,3.75 4.06849,4.06849 -0.0372,22.71981 4.25,26 7.13551,5.45942 15.33578,6.16423 28.5,-1.5 1.30126,-0.75759 2.7623,-4.38115 4,-5 3.71778,-1.85889 -0.35727,7.46454 -0.5,7.75 -0.54087,1.08175 -0.78086,7.73322 -0.75,8.25 0.39689,6.6469 -2.58766,14.82468 -0.5,19 1.09516,2.19031 29.20474,-0.95474 30.25,-2 1.98268,-1.98268 4.69533,-4.26636 5.25,-7 1.01823,-5.01823 3.70366,-32.34268 3.5,-40.5 -0.12292,-4.9232 -3.33087,-8.58087 -7,-12.25 -1.656,-1.656 0.87522,-8.74956 -0.25,-11 -1.08041,-2.16082 -1.64992,-4.79984 -2.75,-7 -6.16571,-12.33142 -17.3183,-19.3561 -29.75,-23.5 -8.62508,-2.87502 -11.67575,-14.78712 -23.5625,-8.6875 -4.92983,0.17983 -4.8625,5.15641 -8.6875,8.6875 z"
       id="path4395"
       inkscape:connector-curvature="0"
       sodipodi:nodetypes="scsssssssssssssssscs" />
    <path
       style="fill:none;stroke:#000000;stroke-width:1px;stroke-linecap:butt;stroke-linejoin:miter;stroke-opacity:1"
       d="m 540.5,634.61218 c 2.42078,0.14503 4.44557,1.05443 6,-0.5"
       id="path4397"
       inkscape:connector-curvature="0" />
    <path
       style="fill:none;stroke:#000000;stroke-width:1px;stroke-linecap:butt;stroke-linejoin:miter;stroke-opacity:1"
       d="m 575.25,644.24606 c 0.78532,-2.35977 2.22265,-11.49327 1,-16.38388"
       id="path4399"
       inkscape:connector-curvature="0"
       sodipodi:nodetypes="cc" />
    <path
       style="fill:#ffffff;stroke:#000000;stroke-width:1px;stroke-linecap:butt;stroke-linejoin:miter;stroke-opacity:1;fill-opacity:1"
       d="m 538,604.28896 c -0.60163,-1.03921 0.18275,-4.32875 2,-5.25 4.56344,-2.31344 10.31185,5.93815 9.25,7 -1.38718,1.38718 -9.83778,0.60371 -11.25,-1.75 z"
       id="path4401"
       inkscape:connector-curvature="0"
       sodipodi:nodetypes="cssc" />
    <path
       style="fill:#2b1f11;stroke:none;stroke-width:1px;stroke-linecap:butt;stroke-linejoin:miter;stroke-opacity:1;fill-opacity:1"
       d="m 538.5,593.36218 c 4.18346,-6.38224 16.75,3.5 16.75,3.5 -10.18,-4.85678 -16.75,-3.5 -16.75,-3.5 z"
       id="path4403"
       inkscape:connector-curvature="0"
       sodipodi:nodetypes="ccc" />
    <path
       sodipodi:type="arc"
       style="fill:#000000;fill-opacity:1;stroke:none"
       id="path4405"
       sodipodi:cx="541.11346"
       sodipodi:cy="602.81903"
       sodipodi:rx="1.767767"
       sodipodi:ry="3.0052037"
       d="m 542.88123,602.81903 a 1.767767,3.0052037 0 1 1 -3.53553,0 1.767767,3.0052037 0 1 1 3.53553,0 z" />
    <path
       style="fill:#312517;stroke:#000000;stroke-width:1px;stroke-linecap:butt;stroke-linejoin:miter;stroke-opacity:1;fill-opacity:1"
       d="m 553.48783,585.31815 c -3.4933,0.16872 -20.43985,-9.32486 -17.32411,-15.55635 3.25083,-6.50166 8.20129,-6.25674 11.66726,-9.72271 1.07892,-1.07893 4.74937,-0.15318 6.01041,-1.41422 2.27431,-2.27432 5.34071,-5.23362 8.66206,-6.89429 3.12068,-1.56034 7.01371,-0.67843 9.89949,-2.12132 6.34123,-3.17061 17.20681,-4.3013 23.68808,-1.06066 2.49388,1.24694 11.16767,-0.60335 15.20279,1.41421 2.25896,1.12948 8.76013,7.97431 10.07627,10.60661 0.90049,1.80097 0.79061,5.74035 2.2981,7.24784 2.19074,2.19073 6.10094,3.62607 8.13173,5.65685 1.63414,1.63414 3.30722,12.47745 1.76777,15.55635 -2.63538,5.27076 -4.97669,8.89272 -7.24785,13.43503 -1.19745,2.3949 5.53677,10.67 3.18198,15.37958 -1.65336,3.30673 -5.53393,16.84764 -7.6014,18.9151 -3.42386,3.42386 -8.90488,5.36935 -10.78337,7.24785 -1.4894,1.4894 -3.55648,3.53553 -6.54074,3.53553 -7.69029,0 -13.48073,-5.39471 -16.26346,-10.96016 -0.93703,-1.87407 -0.8233,-5.24272 -2.47487,-6.89429 -1.32367,-1.32366 -4.96942,-8.26917 -3.53553,-11.13693 1.48413,-2.96827 7.98067,-17.65194 4.24264,-21.38998 -2.81149,-2.81148 -8.24925,3.47628 -10.07628,5.3033 -1.31767,1.31767 0.19638,3.84989 -0.35355,4.94975 -0.40095,0.8019 -2.8653,1.37734 -3.53553,0.70711 -0.7916,-0.7916 -2.10181,-1.21793 -3.00521,-2.12132 -1.01565,-1.01565 -0.37801,-3.73677 -1.41421,-4.77297 -1.79696,-1.79696 -5.9216,-0.35273 -7.42462,-3.35876 -1.5255,-3.051 -2.41279,-4.35733 -4.5962,-6.54074 -1.5015,-1.50151 -0.56763,-4.44739 -2.65165,-6.01041 z"
       id="path4407"
       inkscape:connector-curvature="0" />
    <path
       style="fill:none;stroke:#000000;stroke-width:0.6;stroke-linecap:butt;stroke-linejoin:miter;stroke-opacity:1;stroke-miterlimit:4;stroke-dasharray:none"
       d="m 574.87781,551.73058 c 0.17114,0.11903 3.10501,5.45726 2.12132,7.42462"
       id="path4413"
       inkscape:connector-curvature="0" />
    <path
       style="fill:none;stroke:#000000;stroke-width:0.6;stroke-linecap:butt;stroke-linejoin:miter;stroke-opacity:1;stroke-miterlimit:4;stroke-dasharray:none"
       d="m 561.26601,566.93338 c 5.00483,-0.36796 17.28996,-10.18174 24.92551,-6.36396 2.56266,1.28132 6.09765,2.20855 7.95495,4.06586 0.60261,0.60261 0.14231,2.98797 0.88389,3.35876 1.0313,0.51565 2.71011,-0.5011 3.71231,0 3.88539,1.94269 7.74036,3.72457 6.54074,9.72272 -0.24606,1.2303 -1.09435,2.24768 -1.23744,3.53553 -0.26336,2.37022 1.08356,5.43428 0,7.6014"
       id="path4415"
       inkscape:connector-curvature="0" />
    <path
       style="fill:none;stroke:#000000;stroke-width:0.6;stroke-linecap:butt;stroke-linejoin:miter;stroke-opacity:1;stroke-miterlimit:4;stroke-dasharray:none"
       d="m 567.27642,577.71676 c -0.31806,0.14831 -1.09205,-1.45222 0.7071,-2.65166 5.57414,-3.71609 20.81067,-5.77931 24.04163,2.2981 0.88838,2.22094 0.53033,5.89992 0.53033,8.30851"
       id="path4417"
       inkscape:connector-curvature="0" />
    <path
       style="fill:none;stroke:#000000;stroke-width:0.6;stroke-linecap:butt;stroke-linejoin:miter;stroke-opacity:1;stroke-miterlimit:4;stroke-dasharray:none"
       d="m 591.49482,588.32336 c 0.61921,1.30888 1.86084,2.40053 2.2981,3.71231 0.72488,2.17465 -0.74134,4.45927 -0.17678,6.71751 1.09597,4.38388 4.05263,10.47111 6.54074,13.78858"
       id="path4419"
       inkscape:connector-curvature="0" />
    <path
       style="fill:none;stroke:#000000;stroke-width:0.6;stroke-linecap:butt;stroke-linejoin:miter;stroke-opacity:1;stroke-miterlimit:4;stroke-dasharray:none"
       d="m 592.37871,598.22285 c 1.22154,-1.91559 4.20446,-2.9025 6.36396,-3.71231 2.34685,-0.88007 4.57302,-1.88176 7.07107,-2.2981 13.27776,-2.21296 0.88388,20.61552 0.88388,24.92552 0,2.04982 1.41697,7.77817 3.88909,7.77817"
       id="path4421"
       inkscape:connector-curvature="0" />
    <path
       style="fill:none;stroke:#000000;stroke-width:0.6;stroke-linecap:butt;stroke-linejoin:miter;stroke-opacity:1;stroke-miterlimit:4;stroke-dasharray:none"
       d="m 607.93506,577.3632 c 1.63302,-3.20998 12.49164,12.90642 10.96015,17.50089 -0.80905,2.42716 -2.76457,4.90225 -4.06586,7.07107"
       id="path4423"
       inkscape:connector-curvature="0" />
    <path
       style="fill:none;stroke:#000000;stroke-width:0.6;stroke-linecap:butt;stroke-linejoin:miter;stroke-opacity:1;stroke-miterlimit:4;stroke-dasharray:none"
       d="m 567.98352,586.37881 c 6.3074,-4.20036 12.68168,0.23297 16.08668,4.77297"
       id="path4425"
       inkscape:connector-curvature="0" />
    <path
       style="fill:none;stroke:#000000;stroke-width:1px;stroke-linecap:butt;stroke-linejoin:miter;stroke-opacity:1"
       d="m 582.5,860.86218 c -0.22953,8.16714 5,15.79198 5,23.5 0,29.04103 -1.5,58.43458 -1.5,89 0,4.12891 0.8876,18.3062 3.5,17"
       id="path4483"
       inkscape:connector-curvature="0" />
    <path
       style="fill:#cccccc;fill-opacity:1;stroke:#000000;stroke-width:1px;stroke-linecap:butt;stroke-linejoin:miter;stroke-opacity:1"
       d="m 525.73389,726.73951 c -2.15698,-3.32618 -1.1619,-9.69702 1.76777,-15.55635 1.84733,-3.69465 3.19247,-10.61709 5.65685,-13.08148 16.18591,-16.1859 33.14348,-31.46625 59.04342,-31.46625 4.96433,0 12.57136,-1.57077 15.2028,1.06066 5.46008,5.46009 0.0637,16.71624 3.79289,20.44544 0.69386,0.69386 1.82843,11.39949 1.82843,11.39949 -1.71099,-5.58806 1.24539,34.58207 0.81802,44.43682 -0.21662,4.99517 -0.18046,25.53926 0.35355,30.84493 1.06928,10.62386 0.86632,24.45195 2.03553,41.29037 0.17708,2.55024 5.24707,17.651 6.38909,23.93503 0.65672,3.61363 1.76126,21.3159 0.88909,22.18807 -1.27356,1.27357 -16.91333,-0.43934 -18.93503,-0.43934 -10.04331,0 -61.37919,14.56524 -65.05383,12.72793 -3.77713,-1.88857 -0.35466,-7.85552 -0.35355,-10.96016 0.003,-8.04994 0.50265,-18.78782 0.12132,-31.24442 -0.14429,-4.71336 1.29289,-32.29292 1.29289,-38.75915 0,-6.68602 4.09308,-19.74458 1.06066,-25.8094 -1.82898,-3.65796 -0.85299,-13.58092 -3.53553,-16.26345 -4.10172,-4.10172 -9.61083,-17.8399 -12.37437,-24.74874 z"
       id="path4431"
       inkscape:connector-curvature="0"
       sodipodi:nodetypes="cssssssssssssssssssc" />
    <path
       style="fill:#c3a37c;stroke:#000000;stroke-width:1px;stroke-linecap:butt;stroke-linejoin:miter;stroke-opacity:1;fill-opacity:1"
       d="m 277.53941,943.82129 c 0.48955,3.45048 -2.12132,16.41515 -2.12132,22.98097 0,19.33451 -8.18598,37.84834 23.68808,27.22361 10.95238,-3.65079 29.7413,7.38183 38.53732,-1.41421 2.4998,-2.4998 5.87563,-5.52208 8.13173,-7.77818 1.3128,-1.3128 0,-11.10089 0,-13.78858 0,-17.41434 3.69913,-36.06244 -18.73833,-36.06244 -7.40156,0 -13.84886,3.08422 -20.5061,5.3033 -8.95088,2.98362 -18.79871,3.53553 -28.99138,3.53553 z"
       id="path4433"
       inkscape:connector-curvature="0" />
    <path
       style="fill:#273ea6;stroke:#000000;stroke-width:1px;stroke-linecap:butt;stroke-linejoin:miter;stroke-opacity:1;fill-opacity:1"
       d="m 315.01607,705.87986 c -16.0411,3.83447 -20.16925,31.83651 -28.99138,45.60839 -2.05371,3.20597 -2.92551,10.77217 -2.82842,14.84924 0.17681,7.42454 0.71801,20.03091 1.41421,25.45584 2.47487,19.28488 25.45342,39.95396 2.47487,61.5183 -2.94887,2.76738 -6.87301,8.28723 -10.6066,12.02081 -5.66951,5.66949 -12.82628,25.75664 -12.02081,37.83021 0.61747,9.25544 2.82842,22.62742 2.82842,22.62742 2.76023,6.84619 1.08177,9.44801 3.18198,13.78858 2.53352,5.06703 3.20415,11.68943 6.71752,15.2028 1.00555,1.00555 31.999,-3.79949 37.47666,-1.06066 4.70048,2.35024 29.53351,0.87208 32.52691,-2.12132 4.30943,-4.30944 -6.77297,-67.47325 -2.82843,-71.41779 5.80023,-5.80023 5.17899,-46.86022 6.01041,-50.20458 2.22253,-8.94005 5.88026,-27.80057 7.42462,-35.00178 0.62806,-2.92858 -3.08361,-20.60448 -0.70711,-22.98098 4.02362,-4.02361 8.75316,-6.63183 13.08148,-10.96015 1.75913,-1.75913 2.43496,-4.90983 3.88909,-6.36396 3.09849,-3.0985 -1.74722,-13.50192 -3.18198,-15.2028 -6.0769,-7.20404 -6.77633,-1.86563 -12.12411,-9.78749 -5.65804,-8.38146 -22.94892,-19.62868 -32.42362,-24.15363 -1.48637,-0.70986 -10.24294,0.0859 -11.31371,0.35355 z"
       id="path4435"
       inkscape:connector-curvature="0"
       sodipodi:nodetypes="cssssssccssssssssssssc" />
    <path
       style="fill:#c3a37c;stroke:#000000;stroke-width:1px;stroke-linecap:butt;stroke-linejoin:miter;stroke-opacity:1;fill-opacity:1"
       d="m 301.22749,732.04281 c 0.73929,-17.24681 17.52744,-31.97003 35.00178,-14.49569 2.68024,2.68023 3.34911,17.51055 2.12133,26.51651 -0.73626,5.40055 0.42058,16.7778 -0.70711,21.92031 -2.38336,10.86864 -1.63779,37.34668 -6.01041,41.7193 -0.52258,0.52258 -2.01612,6.82271 -1.06066,7.77817 1.99167,1.99167 4.5644,7.03928 6.71751,9.19239 5.44459,5.44459 11.30318,8.12119 17.32412,14.14213 3.26584,3.26584 6.45411,6.10056 9.8995,9.54595 6.83241,6.83241 15.46208,12.63365 22.62741,19.79899 0.19551,0.1955 6.06743,0 6.71752,0 6.56482,0 20.24929,3.69559 15.20279,13.78858 -4.54375,9.0875 -12.42561,0.35355 -19.44543,0.35355 -8.21895,0 -57.36996,-27.31792 -64.70028,-34.64823 -4.28635,-4.28635 -12.96626,-8.01652 -16.97056,-12.02082 -2.73992,-2.73992 -3.03312,-15.41014 -3.88909,-19.09188 -5.80361,-24.9629 -3.40769,-42.70555 -3.88908,-50.20458 -0.11354,-1.76878 0.77752,-10.49514 0.70711,-12.37437 -0.26815,-7.15647 0.80411,-15.31383 0.35355,-21.92031 z"
       id="path4437"
       inkscape:connector-curvature="0"
       sodipodi:nodetypes="csssssssscssssssssc" />
    <path
       style="fill:#af9062;fill-opacity:1;stroke:#000000;stroke-width:1px;stroke-linecap:butt;stroke-linejoin:miter;stroke-opacity:1"
       d="m 532.80496,725.67885 c -5.89139,3.0782 -6.33468,10.57732 -9.89949,14.14214 -11.62198,11.62197 -19.01056,27.65947 -21.92032,47.72971 -1.41421,9.75461 -4.62538,9.19312 -6.36396,10.96015 -3.53553,3.59337 -14.11952,7.75556 -20.15253,13.78858 -17.04828,17.04827 -26.82326,27.53036 -41.71931,42.42641 -3.89063,3.89063 -9.60452,0.76568 -13.78858,4.94974 -2.88173,2.88173 -8.43664,4.54755 -11.66727,7.77818 -5.29062,5.29063 -12.37341,6.00945 -17.67766,11.31371 -4.58362,4.58362 6.66274,10.19828 8.13172,11.66726 1.36284,1.36284 1.23643,4.06485 2.47488,5.3033 11.38633,11.38633 25.09636,0.006 33.94112,-8.83883 6.77169,-6.7717 7.6863,-16.87869 14.14214,-23.33453 7.80925,-7.80925 21.50647,-10.2229 31.46625,-15.20279 6.74355,-3.37177 13.53333,-8.53443 20.5061,-12.02082 6.36345,-3.18173 16.45291,-9.02829 21.56675,-14.14213 9.2673,-9.2673 55.07813,-75.45928 47.72971,-90.15612 -7.71969,-15.43939 -24.8037,-6.36396 -36.76955,-6.36396 z"
       id="path4443"
       inkscape:connector-curvature="0"
       sodipodi:nodetypes="cssssssssssssssssc" />
    <path
       style="fill:none;stroke:#000000;stroke-width:1px;stroke-linecap:butt;stroke-linejoin:miter;stroke-opacity:1"
       d="m 393.91914,887.8992 c 1.75599,-1.81916 4.04378,-3.69023 5.24264,-4.88909"
       id="path4445"
       inkscape:connector-curvature="0"
       sodipodi:nodetypes="cc" />
    <path
       style="fill:none;stroke:#000000;stroke-width:1px;stroke-linecap:butt;stroke-linejoin:miter;stroke-opacity:1"
       d="m 399.86889,892.9096 c 0.33106,-0.71821 4.72491,-5.07846 7.77817,-8.13172"
       id="path4447"
       inkscape:connector-curvature="0" />
    <path
       style="fill:none;stroke:#000000;stroke-width:1px;stroke-linecap:butt;stroke-linejoin:miter;stroke-opacity:1"
       d="m 404.46508,898.56646 c 0.65015,-3.22133 5.65597,-7.77773 7.77817,-8.83884"
       id="path4449"
       inkscape:connector-curvature="0"
       sodipodi:nodetypes="cc" />
    <path
       style="fill:#cccccc;stroke:#000000;stroke-width:1px;stroke-linecap:butt;stroke-linejoin:miter;stroke-opacity:1;fill-opacity:1"
       d="m 525.38034,732.39636 c 6.56455,7.16105 28.92649,7.56896 41.36575,13.78859 1.56732,0.78366 5.513,0.2097 6.71751,1.41421 0.13223,0.13223 1.90741,1.27457 2.12132,1.06066 5.32636,-5.32636 8.31943,-41.69745 4.24264,-49.85103 -2.0203,-4.0406 -6.12914,-4.00781 -8.48528,-6.36396 -2.81861,-2.81861 -14.40381,-0.0919 -16.61701,2.12132 -5.89443,5.89443 -10.99921,15.5954 -17.67767,22.27386 -3.75176,3.75176 -8.35249,6.23118 -12.02081,9.8995 -1.63894,1.63894 -1.09815,3.84223 0.35355,5.65685 z"
       id="path4451"
       inkscape:connector-curvature="0" />
    <path
       style="fill:none;stroke:#000000;stroke-width:1px;stroke-linecap:butt;stroke-linejoin:miter;stroke-opacity:1"
       d="m 556.49304,677.59559 c -0.84133,0.92517 -3.22707,10.96015 -2.47488,10.96015 2.89293,0 9.96905,-7.14062 12.02082,-9.19238 7.08107,-7.08108 34.65859,-1.50003 42.65864,2.5"
       id="path4453"
       inkscape:connector-curvature="0"
       sodipodi:nodetypes="cssc" />
    <path
       style="fill:#c3a37c;stroke:#000000;stroke-width:1px;stroke-linecap:butt;stroke-linejoin:miter;stroke-opacity:1;fill-opacity:1"
       d="m 369.25,580.11218 c 2.00481,0.5091 7.18326,6.68326 10.25,9.75 3.2837,3.2837 0.75,18.98883 0.75,23.5 0,1.0324 -1.80093,5.94907 -0.75,7 1.8551,1.8551 9.75,17.11856 9.75,20.5 0,4.19927 -6.5,3.98233 -6.5,7.75 0,7.28974 -1.89116,18.89117 -6,23 -0.70892,0.70892 -2.44605,1.19605 -3.25,2 -0.51997,0.51998 -2.70677,1.54323 -3.5,0.75 -0.64992,-0.64991 -3.02658,0.22342 -3.75,-0.5 -2.25274,-2.25274 -6.82875,-2.9075 -8.5,-6.25 -3.37694,-6.75389 -6.4629,-36.14838 -4.5,-44 0.65726,-2.62905 1.41762,-8.82952 0.75,-11.5 -1.38108,-5.52432 -1.91721,-12.33117 -0.5,-18 0.73047,-2.92188 1.97987,-5.20974 3.25,-7.75 2.69753,-5.39506 7.54071,-4.26628 12.5,-6.25 z"
       id="path4455"
       inkscape:connector-curvature="0" />
    <path
       style="fill:#ffffff;stroke:#000000;stroke-width:1px;stroke-linecap:butt;stroke-linejoin:miter;stroke-opacity:1;fill-opacity:1"
       d="m 366.125,618.11218 c -0.74519,-5.89457 10.85946,-3.91447 11,-0.125 -0.0191,1.98089 -10.75,5.08521 -11,0.125 z"
       id="path4457"
       inkscape:connector-curvature="0"
       sodipodi:nodetypes="ccc" />
    <path
       style="fill:#342818;fill-opacity:1;stroke:none"
       d="m 366.125,611.61218 c 3.51465,-5.64008 13.58078,-1.95578 12.125,1 -4.21942,-4.29294 -7.33877,-3.35198 -12.125,-1 z"
       id="path4459"
       inkscape:connector-curvature="0"
       sodipodi:nodetypes="ccc" />
    <path
       style="fill:none;stroke:#000000;stroke-width:1px;stroke-linecap:butt;stroke-linejoin:miter;stroke-opacity:1"
       d="m 375,655.36218 c 0.85352,2.44483 4.52873,3.75 6.125,3.75"
       id="path4461"
       inkscape:connector-curvature="0" />
    <path
       sodipodi:type="arc"
       style="fill:#0682cc;fill-opacity:1;stroke:#000000;stroke-width:0.19784274;stroke-miterlimit:4;stroke-opacity:1;stroke-dasharray:none"
       id="path4463"
       sodipodi:cx="375.6875"
       sodipodi:cy="617.67468"
       sodipodi:rx="1.0625"
       sodipodi:ry="1.4375"
       d="m 376.75,617.67468 a 1.0625,1.4375 0 1 1 -2.125,0 1.0625,1.4375 0 1 1 2.125,0 z"
       transform="matrix(1.6777348,0,0,1.3704997,-255.4915,-228.91075)" />
    <path
       style="fill:#332717;stroke:#000000;stroke-width:1px;stroke-linecap:butt;stroke-linejoin:miter;stroke-opacity:1;fill-opacity:1"
       d="m 365.75,600.86218 c 1.62667,-4.82829 16.33881,-16.91119 9.5,-23.75 -12.74377,-12.74377 -22.77225,-6.75 -38,-6.75 -1.1465,0 -3.74415,0.50293 -4.75,0 -7.51061,-3.75531 -21.9392,-0.1554 -28.25,3 -9.48605,4.74303 -12.12315,0.62315 -20.75,9.25 -2.39159,2.39159 -4.01293,7.02586 -5.5,10 -0.71839,1.43679 0.52974,6.22026 -0.5,7.25 -4.18568,4.18568 -8.21332,50.82335 -5.25,56.75 1.7,3.4 -1.7,9.35 0,12.75 3.11511,6.23021 3,17.33089 3,24.5 0,4.60774 2.74384,11.48767 4.75,15.5 1.84553,3.69107 -0.4122,9.6756 1.5,13.5 2.00707,4.01414 -1.50349,18.74302 1.25,24.25 0.68215,1.36431 0.97528,9.52472 5.25,5.25 6.79738,-6.79738 10.8183,-32.5683 18.75,-40.5 2.99629,-2.99628 7.5531,-3.15155 10.75,-4.75 7.93345,-3.96672 22.61599,9.116 27.25,13.75 1.8917,1.8917 5.35626,2.71253 6.75,5.5 0.50779,1.01559 2.20932,6.25 4,6.25 0.0492,0 2.34286,-2.18572 2.5,-2.5 4.54231,-9.08461 2.25,-20.76349 2.25,-31.75 0,-0.75746 -0.87536,-3.87464 -0.25,-4.5 5.29802,-5.29802 0.52032,-27.54064 4.25,-35 0.50439,-1.00878 2.06338,-5.37324 1.5,-6.5 -3.36136,-6.72271 -4.5172,-43.97133 0,-51.5 z"
       id="path4465"
       inkscape:connector-curvature="0" />
    <path
       style="fill:none;stroke:#000000;stroke-width:0.6;stroke-linecap:butt;stroke-linejoin:miter;stroke-opacity:1;stroke-miterlimit:4;stroke-dasharray:none"
       d="m 302,599.61218 c -3.99164,-0.6487 -4.13071,5.27286 -4.75,7.75 -1.2834,5.13359 2.79302,11.42208 4,16.25 1.4034,5.6136 1.32826,13.20217 0.5,19 -0.81519,5.70634 -5.34134,10.04805 -6.25,15.5 -1.33093,7.9856 -1.93933,23.99268 0,31.75"
       id="path4467"
       inkscape:connector-curvature="0" />
    <path
       style="fill:none;stroke:#000000;stroke-width:0.5;stroke-linecap:butt;stroke-linejoin:miter;stroke-opacity:1;stroke-miterlimit:4;stroke-dasharray:none"
       d="m 331.25,631.86218 c -0.43018,2.05232 -0.27439,4.31402 0.5,6.25 3.36158,8.40395 7.81282,17.24915 4.25,26.75 -2.01114,5.36303 -4.55312,9.8187 -5.5,15.5"
       id="path4469"
       inkscape:connector-curvature="0" />
    <path
       style="fill:none;stroke:#000000;stroke-width:0.6;stroke-linecap:butt;stroke-linejoin:miter;stroke-opacity:1;stroke-miterlimit:4;stroke-dasharray:none"
       d="m 325.25,602.36218 c -0.25662,-0.6818 -0.84952,-1.55016 -1.75,-1.25 -19.74028,6.5801 0.54344,21.03278 -1.75,32.5 -1.62121,8.10607 -6.8832,19.58398 -5.25,27.75"
       id="path4471"
       inkscape:connector-curvature="0" />
    <path
       style="fill:none;stroke:#000000;stroke-width:0.6;stroke-linecap:butt;stroke-linejoin:miter;stroke-opacity:1;stroke-miterlimit:4;stroke-dasharray:none"
       d="m 317.25,687.36218 c -3.00428,5.40759 -1.26497,12.55987 -2.75,18.5"
       id="path4473"
       inkscape:connector-curvature="0" />
    <path
       style="fill:none;stroke:#000000;stroke-width:0.6;stroke-linecap:butt;stroke-linejoin:miter;stroke-opacity:1;stroke-miterlimit:4;stroke-dasharray:none"
       d="m 344.25,684.36218 c -5.71863,8.93832 11.09071,26.21239 6,33"
       id="path4475"
       inkscape:connector-curvature="0" />
    <path
       style="fill:none;stroke:#000000;stroke-width:0.6;stroke-linecap:butt;stroke-linejoin:miter;stroke-opacity:1;stroke-miterlimit:4;stroke-dasharray:none"
       d="M 368.75,574.11218 C 349.13764,567.4942 353,601.00886 353,610.61218"
       id="path4477"
       inkscape:connector-curvature="0" />
    <path
       style="fill:none;stroke:#000000;stroke-width:0.6;stroke-linecap:butt;stroke-linejoin:miter;stroke-opacity:1;stroke-miterlimit:4;stroke-dasharray:none"
       d="m 330.5,571.61218 c -6.46375,1.0785 -14.23541,7.30836 -12.25,15.25 0.44366,1.77463 3.30008,3.89985 2.25,6 -1.40056,2.80113 -3.46145,5.4229 -4.75,8"
       id="path4479"
       inkscape:connector-curvature="0" />
    <path
       style="fill:none;stroke:#000000;stroke-width:1px;stroke-linecap:butt;stroke-linejoin:miter;stroke-opacity:1"
       d="m 556.5,873.36218 c -5.61397,20.95657 12.39322,25 26.5,25"
       id="path4485"
       inkscape:connector-curvature="0" />
    <path
       style="fill:none;stroke:#000000;stroke-width:1px;stroke-linecap:butt;stroke-linejoin:miter;stroke-opacity:1"
       d="m 558,884.36218 c 18.62541,2.44706 10.31155,3.6231 15,13"
       id="path4487"
       inkscape:connector-curvature="0" />
    <path
       style="fill:none;stroke:#000000;stroke-width:1px;stroke-linecap:butt;stroke-linejoin:miter;stroke-opacity:1"
       d="m 607.5,870.86218 c -7.40966,18.8841 7.12295,42.87705 20,30 0.3091,-0.3091 -1.97515,-27.47515 -2.5,-28 -2.59581,-2.59581 -13.95056,-3.41977 -17.5,-2 z"
       id="path4489"
       inkscape:connector-curvature="0" />
    <flowRoot
       xml:space="preserve"
       id="flowRoot3128"
       style="font-size:90px;font-style:normal;font-weight:normal;line-height:125%;letter-spacing:0.10000000000000001px;word-spacing:0px;fill:#ffffff;fill-opacity:1;stroke:none;font-family:Liberation Sans;text-anchor:middle;text-align:center;-inkscape-font-specification:Liberation Sans;font-stretch:normal;font-variant:normal"><flowRegion
         id="flowRegion3130"><rect
           id="rect3132"
           width="588"
           height="132"
           x="134"
           y="110.36218"
           style="font-size:90px;text-anchor:middle;text-align:center;fill:#ffffff;fill-opacity:1;line-height:125%;letter-spacing:0.10000000000000001px;-inkscape-font-specification:Liberation Sans;font-family:Liberation Sans;font-weight:normal;font-style:normal;font-stretch:normal;font-variant:normal" /></flowRegion><flowPara
         id="flowPara3134"
         style="letter-spacing:0.10000000000000001px;-inkscape-font-specification:Liberation Sans;font-family:Liberation Sans;font-weight:normal;font-style:normal;font-stretch:normal;font-variant:normal">PLAGA</flowPara></flowRoot>    <flowRoot
       xml:space="preserve"
       id="flowRoot3904"
       style="font-size:72px;font-style:normal;font-variant:normal;font-weight:normal;font-stretch:normal;text-align:center;line-height:125%;letter-spacing:0.05px;word-spacing:0px;text-anchor:middle;fill:#ffffff;fill-opacity:1;stroke:none;font-family:Liberation Mono;-inkscape-font-specification:Liberation Mono"><flowRegion
         id="flowRegion3906"><rect
           id="rect3908"
           width="696"
           height="122"
           x="32"
           y="780.36218"
           style="font-size:72px;font-style:normal;font-variant:normal;font-weight:normal;font-stretch:normal;text-align:center;letter-spacing:0.05px;text-anchor:middle;fill:#ffffff;fill-opacity:1;font-family:Liberation Mono;-inkscape-font-specification:Liberation Mono" /></flowRegion><flowPara
         id="flowPara3910">MOSPCORP</flowPara></flowRoot>  </g>
</svg>
